<svg width="127" height="29" viewBox="0 0 127 29" fill="none" xmlns="http://www.w3.org/2000/svg">
<path d="M112.46 28.8374C102.967 28.8374 97.1789 25.7865 97.1789 18.6817V18.4309H105.884V19.3086C105.884 21.1893 106.625 21.6908 112.46 21.6908C117.739 21.6908 118.295 21.3147 118.295 20.0609C118.295 19.0578 117.693 18.6399 115.146 18.3473L105.421 17.1771C99.6331 16.4667 96.7158 13.6665 96.7158 9.15287C96.7158 4.68101 100.559 0.000183105 111.765 0.000183105C121.629 0.000183105 126.352 3.88694 126.352 10.1559V10.4067H117.646V9.77976C117.646 7.77369 116.674 7.105 110.839 7.105C106.394 7.105 105.421 7.64831 105.421 8.86031C105.421 9.73797 105.977 10.1559 107.644 10.3649L117.369 11.6604C124.963 12.6635 127 16.1741 127 19.7683C127 24.5745 122.925 28.8374 112.46 28.8374Z" fill="#2B72CA"/>
<path d="M95.095 28.4197H68.4688V0.418365H77.1744V21.3567H95.095V28.4197Z" fill="#2B72CA"/>
<path d="M41.8885 28.4196H30.4971L42.2126 14.6697V14.1264L30.4971 0.418274H41.8885L49.3901 9.48737H49.9921L57.077 0.418274H68.4684L56.7991 14.2936V14.8369L68.4684 28.4196H57.077L49.6216 19.3087H49.0197L41.8885 28.4196Z" fill="#2B72CA"/>
<path d="M15.7442 28.8372C6.25137 28.8372 0.463065 25.7863 0.463065 18.6815V18.4307H9.16868V19.3084C9.16868 21.1891 9.90958 21.6906 15.7442 21.6906C21.0231 21.6906 21.5788 21.3145 21.5788 20.0607C21.5788 19.0576 20.9768 18.6397 18.43 18.3472L8.70562 17.177C2.91731 16.4665 0 13.6663 0 9.15268C0 4.68082 3.84344 0 15.0496 0C24.9129 0 29.6361 3.88676 29.6361 10.1557V10.4065H20.9305V9.77958C20.9305 7.77351 19.9581 7.10482 14.1235 7.10482C9.67805 7.10482 8.70562 7.64813 8.70562 8.86013C8.70562 9.73779 9.26129 10.1557 10.9283 10.3647L20.6527 11.6603C28.2469 12.6633 30.2844 16.1739 30.2844 19.7681C30.2844 24.5743 26.2095 28.8372 15.7442 28.8372Z" fill="#2B72CA"/>
</svg>
