<svg width="24" height="24" viewBox="0 0 24 24" fill="none" xmlns="http://www.w3.org/2000/svg">
<path d="M7.76441 24C7.22033 24 6.76178 23.8139 6.38875 23.4417C6.01657 23.0687 5.83049 22.6102 5.83049 22.0661C5.83049 21.5229 6.01657 21.0647 6.38875 20.6917C6.76178 20.3187 7.22033 20.1322 7.76441 20.1322C8.30763 20.1322 8.76575 20.3187 9.13879 20.6917C9.51182 21.0647 9.69834 21.5229 9.69834 22.0661C9.69834 22.6102 9.51182 23.0687 9.13879 23.4417C8.76575 23.8139 8.30763 24 7.76441 24ZM19.863 24C19.3198 24 18.8617 23.8139 18.4887 23.4417C18.1156 23.0687 17.9291 22.6102 17.9291 22.0661C17.9291 21.5229 18.1156 21.0647 18.4887 20.6917C18.8617 20.3187 19.3198 20.1322 19.863 20.1322C20.4071 20.1322 20.8657 20.3187 21.2387 20.6917C21.6109 21.0647 21.797 21.5229 21.797 22.0661C21.797 22.6102 21.6109 23.0687 21.2387 23.4417C20.8657 23.8139 20.4071 24 19.863 24ZM5.92461 3.86785L9.3657 11.1072H17.9201C18.0688 11.1072 18.2007 11.0702 18.3159 10.9963C18.4319 10.9215 18.5312 10.8184 18.6137 10.6869L21.9852 4.56277C22.0849 4.38055 22.0935 4.21896 22.011 4.078C21.9285 3.9379 21.7879 3.86785 21.5894 3.86785H5.92461ZM5.29415 2.57857H22.0806C22.6402 2.57857 23.0613 2.8072 23.3441 3.26446C23.6277 3.72087 23.6428 4.19146 23.3892 4.67623L19.7045 11.3908C19.5179 11.7045 19.2756 11.9508 18.9773 12.1296C18.679 12.3075 18.3511 12.3965 17.9936 12.3965H8.78552L7.21905 15.2728C7.08668 15.4705 7.08238 15.6854 7.20615 15.9175C7.32992 16.1496 7.51601 16.2656 7.76441 16.2656H21.797V17.5549H7.76441C7.01233 17.5549 6.45106 17.2377 6.08061 16.6034C5.71101 15.9691 5.70199 15.3322 6.05353 14.6927L7.99261 11.2374L3.25192 1.28928H0.920898V0H4.06933L5.29415 2.57857Z" fill="#000501"/>
</svg>
