<svg width="21" height="17" viewBox="0 0 21 17" fill="none" xmlns="http://www.w3.org/2000/svg">
<rect width="21" height="17" fill="#1E1E1E"/>
<g clip-path="url(#clip0_394_2)">
<rect width="1920" height="2092" transform="translate(-878 -1977)" fill="#D4CCEE"/>
<rect width="1920" height="342" transform="translate(-878 -227)" fill="#FCFCFC"/>
<path d="M2.03758 16.6503C1.47724 16.6503 0.997395 16.4507 0.59803 16.0513C0.198665 15.6519 -0.000677463 15.1724 1.72969e-06 14.6128V2.38731C1.72969e-06 1.82698 0.199684 1.34713 0.599049 0.947762C0.998414 0.548397 1.47792 0.349054 2.03758 0.349733H18.3382C18.8985 0.349733 19.3784 0.549415 19.7777 0.94878C20.1771 1.34815 20.3764 1.82766 20.3758 2.38731V14.6128C20.3758 15.1731 20.1761 15.653 19.7767 16.0523C19.3774 16.4517 18.8978 16.651 18.3382 16.6503H2.03758ZM10.1879 9.51883L2.03758 4.42489V14.6128H18.3382V4.42489L10.1879 9.51883ZM10.1879 7.48125L18.3382 2.38731H2.03758L10.1879 7.48125ZM2.03758 4.42489V2.38731V14.6128V4.42489Z" fill="#2B72CA"/>
</g>
<defs>
<clipPath id="clip0_394_2">
<rect width="1920" height="2092" fill="white" transform="translate(-878 -1977)"/>
</clipPath>
</defs>
</svg>
