<svg width="20" height="20" viewBox="0 0 20 20" fill="none" xmlns="http://www.w3.org/2000/svg">
<path d="M9.76581 0.234253C7.11561 0.234253 6.78235 0.24646 5.74107 0.292848C4.69979 0.341677 3.99055 0.505254 3.3692 0.746958C2.71745 0.992103 2.1271 1.37664 1.63943 1.87369C1.14269 2.36161 0.758202 2.95188 0.512705 3.60346C0.271001 4.22358 0.106203 4.93405 0.0585948 5.97166C0.0122073 7.01538 0 7.34742 0 10.0013C0 12.6527 0.0122073 12.9847 0.0585948 14.026C0.107424 15.0661 0.271001 15.7753 0.512705 16.3967C0.762954 17.0388 1.09621 17.5832 1.63943 18.1264C2.18144 18.6697 2.72588 19.0041 3.36798 19.2532C3.99055 19.4949 4.69857 19.6597 5.73863 19.7073C6.78113 19.7537 7.11317 19.7659 9.76581 19.7659C12.4184 19.7659 12.7493 19.7537 13.7918 19.7073C14.8306 19.6584 15.5423 19.4949 16.1636 19.2532C16.815 19.0079 17.4049 18.6234 17.8922 18.1264C18.4354 17.5832 18.7687 17.0388 19.0189 16.3967C19.2594 15.7753 19.4242 15.0661 19.473 14.026C19.5194 12.9847 19.5316 12.6527 19.5316 10.0001C19.5316 7.34742 19.5194 7.01538 19.473 5.97288C19.4242 4.93405 19.2594 4.22358 19.0189 3.60346C18.7734 2.95186 18.3889 2.36158 17.8922 1.87369C17.4047 1.37646 16.8143 0.991891 16.1624 0.746958C15.5398 0.505254 14.8294 0.340456 13.7905 0.292848C12.748 0.24646 12.4172 0.234253 9.76336 0.234253H9.76703H9.76581ZM8.89054 1.99454H9.76703C12.3745 1.99454 12.6833 2.00308 13.7124 2.05069C14.6646 2.09342 15.1822 2.25333 15.5264 2.38639C15.9817 2.5634 16.3077 2.7758 16.6495 3.11761C16.9913 3.45941 17.2025 3.78412 17.3795 4.24067C17.5138 4.5837 17.6724 5.10129 17.7152 6.05345C17.7628 7.08252 17.7725 7.39137 17.7725 9.99762C17.7725 12.6039 17.7628 12.9139 17.7152 13.943C17.6724 14.8952 17.5125 15.4115 17.3795 15.7558C17.2229 16.1798 16.973 16.5632 16.6483 16.8776C16.3065 17.2194 15.9817 17.4306 15.5252 17.6076C15.1834 17.7419 14.6658 17.9006 13.7124 17.9445C12.6833 17.9909 12.3745 18.0019 9.76703 18.0019C7.15956 18.0019 6.84949 17.9909 5.82042 17.9445C4.86825 17.9006 4.35189 17.7419 4.00764 17.6076C3.58344 17.4513 3.19968 17.2018 2.88457 16.8776C2.55956 16.5627 2.30927 16.179 2.15214 15.7546C2.01908 15.4115 1.85917 14.8939 1.81644 13.9418C1.77005 12.9127 1.76029 12.6039 1.76029 9.99518C1.76029 7.38771 1.77005 7.08008 1.81644 6.05101C1.86039 5.09884 2.01908 4.58126 2.15336 4.23701C2.33037 3.78168 2.54277 3.45575 2.88457 3.11394C3.22638 2.77214 3.55109 2.56096 4.00764 2.38395C4.35189 2.24967 4.86825 2.09098 5.82042 2.04703C6.72132 2.00553 7.07044 1.99332 8.89054 1.9921V1.99454ZM14.9795 3.61566C14.8256 3.61566 14.6732 3.64598 14.5311 3.70487C14.3889 3.76376 14.2597 3.85008 14.1509 3.9589C14.042 4.06772 13.9557 4.19691 13.8968 4.33909C13.8379 4.48128 13.8076 4.63366 13.8076 4.78756C13.8076 4.94146 13.8379 5.09384 13.8968 5.23602C13.9557 5.37821 14.042 5.5074 14.1509 5.61622C14.2597 5.72504 14.3889 5.81136 14.5311 5.87025C14.6732 5.92914 14.8256 5.95946 14.9795 5.95946C15.2903 5.95946 15.5884 5.83599 15.8082 5.61622C16.028 5.39644 16.1514 5.09837 16.1514 4.78756C16.1514 4.47675 16.028 4.17868 15.8082 3.9589C15.5884 3.73913 15.2903 3.61566 14.9795 3.61566ZM9.76703 4.98532C9.10182 4.97494 8.44119 5.097 7.8236 5.34438C7.20602 5.59177 6.64382 5.95954 6.16973 6.42629C5.69564 6.89304 5.31915 7.44943 5.06216 8.06308C4.80516 8.67673 4.67282 9.33538 4.67282 10.0007C4.67282 10.666 4.80516 11.3246 5.06216 11.9383C5.31915 12.5519 5.69564 13.1083 6.16973 13.575C6.64382 14.0418 7.20602 14.4096 7.8236 14.657C8.44119 14.9043 9.10182 15.0264 9.76703 15.016C11.0836 14.9955 12.3394 14.458 13.2632 13.5197C14.187 12.5814 14.7047 11.3174 14.7047 10.0007C14.7047 8.6839 14.187 7.41995 13.2632 6.48162C12.3394 5.54329 11.0836 5.00586 9.76703 4.98532ZM9.76703 6.74438C10.6305 6.74438 11.4586 7.08739 12.0691 7.69795C12.6797 8.30851 13.0227 9.1366 13.0227 10.0001C13.0227 10.8635 12.6797 11.6916 12.0691 12.3022C11.4586 12.9127 10.6305 13.2557 9.76703 13.2557C8.90357 13.2557 8.07547 12.9127 7.46492 12.3022C6.85436 11.6916 6.51135 10.8635 6.51135 10.0001C6.51135 9.1366 6.85436 8.30851 7.46492 7.69795C8.07547 7.08739 8.90357 6.74438 9.76703 6.74438Z" fill="#000501"/>
</svg>
