<svg width="21" height="24" viewBox="0 0 21 24" fill="none" xmlns="http://www.w3.org/2000/svg">
<path d="M10.3816 2.05714C9.9764 2.05714 9.57515 2.13696 9.20077 2.29203C8.8264 2.4471 8.48623 2.67439 8.19969 2.96093C7.91316 3.24746 7.68587 3.58763 7.5308 3.96201C7.37572 4.33638 7.29591 4.73764 7.29591 5.14286C7.29591 5.54808 7.37572 5.94933 7.5308 6.32371C7.68587 6.69809 7.91316 7.03825 8.19969 7.32479C8.48623 7.61132 8.8264 7.83861 9.20077 7.99369C9.57515 8.14876 9.9764 8.22857 10.3816 8.22857C11.2 8.22857 11.9849 7.90347 12.5636 7.32479C13.1422 6.7461 13.4673 5.96124 13.4673 5.14286C13.4673 4.32447 13.1422 3.53961 12.5636 2.96093C11.9849 2.38224 11.2 2.05714 10.3816 2.05714ZM5.23877 5.14286C5.23877 3.77889 5.7806 2.47078 6.74507 1.50631C7.70955 0.541835 9.01765 0 10.3816 0C11.7456 0 13.0537 0.541835 14.0182 1.50631C14.9826 2.47078 15.5245 3.77889 15.5245 5.14286C15.5245 6.50683 14.9826 7.81493 14.0182 8.77941C13.0537 9.74388 11.7456 10.2857 10.3816 10.2857C9.01765 10.2857 7.70955 9.74388 6.74507 8.77941C5.7806 7.81493 5.23877 6.50683 5.23877 5.14286ZM6.69797 13.1232C6.879 13.2576 7.11214 13.4153 7.39054 13.5717C8.09408 13.9694 9.12539 14.3808 10.3803 14.3808C11.6351 14.3808 12.6678 13.9694 13.3713 13.5717C13.6497 13.4153 13.8829 13.2576 14.0639 13.1232C14.3217 13.1918 14.5773 13.2677 14.8305 13.3509L16.1471 13.7829C17.1345 14.1079 17.8806 14.8965 18.1467 15.8715L18.6911 19.7993C18.794 20.5454 18.4031 21.0871 17.86 21.216C16.4241 21.5589 14.0036 21.9429 10.3816 21.9429C6.75968 21.9429 4.33774 21.5589 2.90185 21.216C2.36014 21.0871 1.96928 20.5454 2.07077 19.7993L2.61522 15.8715C2.75051 15.3853 3.00402 14.9401 3.35315 14.5757C3.70228 14.2113 4.13617 13.9389 4.61614 13.7829L5.93271 13.3509C6.18505 13.2686 6.44014 13.1927 6.69797 13.1232ZM7.67168 11.2649L7.27259 10.8713L6.72128 10.9975C6.24037 11.1072 5.76311 11.2402 5.28951 11.3966L3.97294 11.8286C3.15504 12.0944 2.41763 12.5627 1.82923 13.19C1.24084 13.8172 0.820559 14.583 0.607452 15.4162L0.593738 15.4711L0.034195 19.5168C-0.186605 21.1131 0.667795 22.7986 2.42597 23.2169C4.03054 23.5995 6.61157 24 10.3803 24C14.1503 24 16.7313 23.5995 18.3359 23.2183C20.0941 22.7986 20.9499 21.1131 20.7291 19.5182L20.1681 15.4725L20.1544 15.4176C19.9414 14.584 19.521 13.8178 18.9323 13.1903C18.3437 12.5628 17.6059 12.0944 16.7876 11.8286L15.4724 11.3966C14.9997 11.2411 14.5224 11.1086 14.0406 10.9989L13.4893 10.8713L13.0916 11.2635L13.0902 11.2649C13.0372 11.3132 12.9823 11.3594 12.9256 11.4034C12.7488 11.5439 12.5608 11.6696 12.3633 11.7792C11.7604 12.1277 11.078 12.3152 10.3816 12.3237C9.68529 12.3152 9.00285 12.1277 8.39991 11.7792C8.14082 11.6329 7.8959 11.4605 7.67168 11.2649Z" fill="#000501"/>
</svg>
