<svg width="22" height="22" viewBox="0 0 22 22" fill="none" xmlns="http://www.w3.org/2000/svg">
<path d="M21.6444 21.1444C21.1719 21.617 20.4058 21.617 19.9333 21.1444L13.0889 14.3C12.4778 14.7889 11.775 15.1759 10.9806 15.4611C10.1861 15.7463 9.34074 15.8889 8.44444 15.8889C6.22407 15.8889 4.34511 15.1197 2.80756 13.5813C1.27 12.043 0.500815 10.164 0.5 7.94444C0.5 5.72407 1.26919 3.84511 2.80756 2.30756C4.34593 0.77 6.22489 0.000814815 8.44444 0C10.6648 0 12.5442 0.769185 14.0826 2.30756C15.6209 3.84593 16.3897 5.72489 16.3889 7.94444C16.3889 8.84074 16.2463 9.68611 15.9611 10.4806C15.6759 11.275 15.2889 11.9778 14.8 12.5889L21.6444 19.4333C22.117 19.9058 22.117 20.6719 21.6444 21.1444V21.1444ZM8.44444 13.4444C9.97222 13.4444 11.271 12.9099 12.3409 11.8409C13.4107 10.7719 13.9453 9.47304 13.9444 7.94444C13.9444 6.41667 13.4099 5.11826 12.3409 4.04922C11.2719 2.98019 9.97304 2.44526 8.44444 2.44444C6.91667 2.44444 5.61826 2.97937 4.54922 4.04922C3.48019 5.11907 2.94526 6.41748 2.94444 7.94444C2.94444 9.47222 3.47937 10.771 4.54922 11.8409C5.61907 12.9107 6.91748 13.4453 8.44444 13.4444Z" fill="#000501"/>
</svg>
