<svg width="18" height="20" viewBox="0 0 18 20" fill="none" xmlns="http://www.w3.org/2000/svg">
<path d="M14.0024 3.13333C13.2429 2.26625 12.8243 1.1527 12.8246 0H9.39129V13.7778C9.36481 14.5234 9.05003 15.2296 8.51325 15.7477C7.97646 16.2658 7.25956 16.5555 6.51351 16.5556C4.93573 16.5556 3.62462 15.2667 3.62462 13.6667C3.62462 11.7556 5.46906 10.3222 7.36906 10.9111V7.4C3.53573 6.88889 0.180176 9.86667 0.180176 13.6667C0.180176 17.3667 3.24684 20 6.5024 20C9.99129 20 12.8246 17.1667 12.8246 13.6667V6.67778C14.2168 7.67761 15.8884 8.21405 17.6024 8.21111V4.77778C17.6024 4.77778 15.5135 4.87778 14.0024 3.13333Z" fill="#000501"/>
</svg>
